<?xml version="1.0" encoding="iso-8859-1"?>
<!-- Generator: Adobe Illustrator 19.0.0, SVG Export Plug-In . SVG Version: 6.00 Build 0)  -->
<svg version="1.1" id="Layer_1" xmlns="http://www.w3.org/2000/svg" xmlns:xlink="http://www.w3.org/1999/xlink" x="0px" y="0px"
	 viewBox="0 0 511.988 511.988" style="enable-background:new 0 0 511.988 511.988;" xml:space="preserve">
<path style="fill:#E6E9ED;" d="M362.647,42.672H21.335C9.601,42.672,0,52.265,0,63.999v287.994c0,11.734,9.601,21.328,21.335,21.328
	h341.312c11.75,0,21.344-9.594,21.344-21.328V63.999C383.991,52.266,374.397,42.672,362.647,42.672z"/>
<path style="fill:#434A54;" d="M501.332,351.992H117.333c-5.891,0-10.671,4.781-10.671,10.672v42.654
	c0,5.891,4.781,10.672,10.671,10.672h383.999c5.875,0,10.656-4.781,10.656-10.672v-42.654
	C511.988,356.773,507.207,351.992,501.332,351.992z"/>
<path style="fill:#ED5564;" d="M362.647,42.672H21.335C9.601,42.672,0,52.265,0,63.999v53.327h383.991V63.999
	C383.991,52.266,374.397,42.672,362.647,42.672z"/>
<g>
	<path style="fill:#434A54;" d="M74.662,85.328c-5.891,0-10.664-4.766-10.664-10.656V32c0-5.891,4.773-10.672,10.664-10.672
		c5.891,0,10.672,4.782,10.672,10.672v42.671C85.334,80.562,80.553,85.328,74.662,85.328z"/>
	<path style="fill:#434A54;" d="M159.996,85.328c-5.891,0-10.664-4.766-10.664-10.656V32c0-5.891,4.773-10.672,10.664-10.672
		S170.66,26.109,170.66,32v42.671C170.66,80.562,165.887,85.328,159.996,85.328z"/>
	<path style="fill:#434A54;" d="M245.33,85.328c-5.891,0-10.671-4.766-10.671-10.656V32c0-5.891,4.781-10.672,10.671-10.672
		S255.994,26.11,255.994,32v42.671C255.994,80.562,251.221,85.328,245.33,85.328z"/>
	<path style="fill:#434A54;" d="M330.648,85.328c-5.875,0-10.655-4.766-10.655-10.656V32c0-5.891,4.78-10.672,10.655-10.672
		c5.906,0,10.688,4.781,10.688,10.672v42.671C341.336,80.562,336.555,85.328,330.648,85.328z"/>
</g>
<g>
	<rect x="53.334" y="149.325" style="fill:#CCD1D9;" width="63.999" height="63.999"/>
	<rect x="159.994" y="149.325" style="fill:#CCD1D9;" width="63.999" height="63.999"/>
	<rect x="266.654" y="149.325" style="fill:#CCD1D9;" width="63.991" height="63.999"/>
	<rect x="53.334" y="255.995" style="fill:#CCD1D9;" width="63.999" height="63.998"/>
	<rect x="159.994" y="255.995" style="fill:#CCD1D9;" width="63.999" height="63.998"/>
	<rect x="266.654" y="255.995" style="fill:#CCD1D9;" width="63.991" height="63.998"/>
</g>
<path style="fill:#DA4453;" d="M181.331,309.32c-17.648,0-31.999,14.359-31.999,32v85.342c0,17.641,14.351,32,31.999,32
	c17.64,0,32-14.359,32-32V341.32C213.331,323.681,198.972,309.32,181.331,309.32z"/>
<path style="fill:#ED5564;" d="M234.659,277.323c-17.641,0-32,14.359-32,31.998v149.342c0,17.639,14.359,31.998,32,31.998
	c17.648,0,31.999-14.359,31.999-31.998V309.32C266.657,291.682,252.306,277.323,234.659,277.323z"/>
<path style="fill:#DA4453;" d="M437.333,309.32c-17.655,0-31.998,14.359-31.998,32v85.342c0,17.641,14.343,32,31.998,32
	c17.625,0,32-14.359,32-32V341.32C469.333,323.681,454.958,309.32,437.333,309.32z"/>
<path style="fill:#ED5564;" d="M383.991,277.323c-17.656,0-32,14.359-32,31.998v149.342c0,17.639,14.344,31.998,32,31.998
	s31.999-14.359,31.999-31.998V309.32C415.99,291.682,401.647,277.323,383.991,277.323z"/>
<g>
	<path style="fill:#656D78;" d="M511.988,373.32c-2.719,0-5.469,1.047-7.531,3.125c-4.188,4.172-4.188,10.92,0,15.092
		c2.062,2.078,4.812,3.125,7.531,3.125V373.32z"/>
	<path style="fill:#656D78;" d="M106.661,373.32v21.342c2.734,0,5.46-1.047,7.546-3.125c4.164-4.172,4.164-10.92,0-15.092
		C112.122,374.367,109.395,373.32,106.661,373.32z"/>
</g>
<g>
</g>
<g>
</g>
<g>
</g>
<g>
</g>
<g>
</g>
<g>
</g>
<g>
</g>
<g>
</g>
<g>
</g>
<g>
</g>
<g>
</g>
<g>
</g>
<g>
</g>
<g>
</g>
<g>
</g>
</svg>
